<?xml version="1.0" encoding="UTF-8" standalone="no"?>
<!DOCTYPE svg PUBLIC "-//W3C//DTD SVG 1.1//EN"
 "http://www.w3.org/Graphics/SVG/1.1/DTD/svg11.dtd">
<!-- Generated by graphviz version 2.43.0 (0)
 -->
<!-- Title: fx_graph Pages: 1 -->
<svg width="1179pt" height="2513pt"
 viewBox="0.00 0.00 1179.00 2513.00" xmlns="http://www.w3.org/2000/svg" xmlns:xlink="http://www.w3.org/1999/xlink">
<g id="graph0" class="graph" transform="scale(1 1) rotate(0) translate(4 2509)">
<title>fx_graph</title>
<polygon fill="white" stroke="transparent" points="-4,4 -4,-2509 1175,-2509 1175,4 -4,4"/>
<!-- l_x_ -->
<g id="node1" class="node">
<title>l_x_</title>
<path fill="AliceBlue" stroke="black" d="M12,-2412.5C12,-2412.5 157,-2412.5 157,-2412.5 163,-2412.5 169,-2418.5 169,-2424.5 169,-2424.5 169,-2492.5 169,-2492.5 169,-2498.5 163,-2504.5 157,-2504.5 157,-2504.5 12,-2504.5 12,-2504.5 6,-2504.5 0,-2498.5 0,-2492.5 0,-2492.5 0,-2424.5 0,-2424.5 0,-2418.5 6,-2412.5 12,-2412.5"/>
<text text-anchor="middle" x="84.5" y="-2489.3" font-family="Times,serif" font-size="14.00" fill="#000000">name=%l_x_</text>
<polyline fill="none" stroke="black" points="0,-2481.5 169,-2481.5 "/>
<text text-anchor="middle" x="84.5" y="-2466.3" font-family="Times,serif" font-size="14.00" fill="#000000">op_code=placeholder</text>
<polyline fill="none" stroke="black" points="0,-2458.5 169,-2458.5 "/>
<text text-anchor="middle" x="84.5" y="-2443.3" font-family="Times,serif" font-size="14.00" fill="#000000">target=L_x_</text>
<polyline fill="none" stroke="black" points="0,-2435.5 169,-2435.5 "/>
<text text-anchor="middle" x="84.5" y="-2420.3" font-family="Times,serif" font-size="14.00" fill="#000000">num_users=1</text>
</g>
<!-- qkv -->
<g id="node2" class="node">
<title>qkv</title>
<path fill="#fffacd" stroke="black" d="M254.5,-2260.5C254.5,-2260.5 466.5,-2260.5 466.5,-2260.5 472.5,-2260.5 478.5,-2266.5 478.5,-2272.5 478.5,-2272.5 478.5,-2363.5 478.5,-2363.5 478.5,-2369.5 472.5,-2375.5 466.5,-2375.5 466.5,-2375.5 254.5,-2375.5 254.5,-2375.5 248.5,-2375.5 242.5,-2369.5 242.5,-2363.5 242.5,-2363.5 242.5,-2272.5 242.5,-2272.5 242.5,-2266.5 248.5,-2260.5 254.5,-2260.5"/>
<text text-anchor="middle" x="360.5" y="-2360.3" font-family="Times,serif" font-size="14.00" fill="#000000">name=%qkv</text>
<polyline fill="none" stroke="black" points="242.5,-2352.5 478.5,-2352.5 "/>
<text text-anchor="middle" x="360.5" y="-2337.3" font-family="Times,serif" font-size="14.00" fill="#000000">op_code=call_module</text>
<text text-anchor="middle" x="360.5" y="-2306.3" font-family="Times,serif" font-size="14.00" fill="#000000">torch.nn.modules.linear.Linear</text>
<polyline fill="none" stroke="black" points="242.5,-2298.5 478.5,-2298.5 "/>
<text text-anchor="middle" x="360.5" y="-2283.3" font-family="Times,serif" font-size="14.00" fill="#000000">in_features: 64</text>
<text text-anchor="middle" x="360.5" y="-2268.3" font-family="Times,serif" font-size="14.00" fill="#000000">out_features: 192</text>
</g>
<!-- l_x_&#45;&gt;qkv -->
<g id="edge5" class="edge">
<title>l_x_&#45;&gt;qkv</title>
<path fill="none" stroke="black" d="M169.18,-2415C191.17,-2403.97 215.3,-2391.86 238.78,-2380.08"/>
<polygon fill="black" stroke="black" points="240.38,-2383.19 247.75,-2375.58 237.24,-2376.94 240.38,-2383.19"/>
</g>
<!-- qkv_1 -->
<g id="node5" class="node">
<title>qkv_1</title>
<path fill="#98f5ff" stroke="black" d="M287,-2018.5C287,-2018.5 434,-2018.5 434,-2018.5 440,-2018.5 446,-2024.5 446,-2030.5 446,-2030.5 446,-2211.5 446,-2211.5 446,-2217.5 440,-2223.5 434,-2223.5 434,-2223.5 287,-2223.5 287,-2223.5 281,-2223.5 275,-2217.5 275,-2211.5 275,-2211.5 275,-2030.5 275,-2030.5 275,-2024.5 281,-2018.5 287,-2018.5"/>
<text text-anchor="middle" x="360.5" y="-2208.3" font-family="Times,serif" font-size="14.00" fill="#000000">name=%qkv_1</text>
<polyline fill="none" stroke="black" points="275,-2200.5 446,-2200.5 "/>
<text text-anchor="middle" x="360.5" y="-2185.3" font-family="Times,serif" font-size="14.00" fill="#000000">op_code=call_method</text>
<polyline fill="none" stroke="black" points="275,-2177.5 446,-2177.5 "/>
<text text-anchor="middle" x="360.5" y="-2162.3" font-family="Times,serif" font-size="14.00" fill="#000000">target=reshape</text>
<polyline fill="none" stroke="black" points="275,-2154.5 446,-2154.5 "/>
<text text-anchor="start" x="283" y="-2139.3" font-family="Times,serif" font-size="14.00" fill="#000000">args=(</text>
<text text-anchor="middle" x="360.5" y="-2124.3" font-family="Times,serif" font-size="14.00" fill="#000000">2,</text>
<text text-anchor="middle" x="360.5" y="-2109.3" font-family="Times,serif" font-size="14.00" fill="#000000">10,</text>
<text text-anchor="middle" x="360.5" y="-2094.3" font-family="Times,serif" font-size="14.00" fill="#000000">3,</text>
<text text-anchor="middle" x="360.5" y="-2079.3" font-family="Times,serif" font-size="14.00" fill="#000000">4,</text>
<text text-anchor="middle" x="360.5" y="-2064.3" font-family="Times,serif" font-size="14.00" fill="#000000">16,</text>
<text text-anchor="start" x="283" y="-2049.3" font-family="Times,serif" font-size="14.00" fill="#000000">)</text>
<polyline fill="none" stroke="black" points="275,-2041.5 446,-2041.5 "/>
<text text-anchor="middle" x="360.5" y="-2026.3" font-family="Times,serif" font-size="14.00" fill="#000000">num_users=1</text>
</g>
<!-- qkv&#45;&gt;qkv_1 -->
<g id="edge6" class="edge">
<title>qkv&#45;&gt;qkv_1</title>
<path fill="none" stroke="black" d="M360.5,-2260.34C360.5,-2251.83 360.5,-2242.82 360.5,-2233.64"/>
<polygon fill="black" stroke="black" points="364,-2233.62 360.5,-2223.62 357,-2233.62 364,-2233.62"/>
</g>
<!-- qkv.weight -->
<g id="node3" class="node">
<title>qkv.weight</title>
<path fill="Salmon" stroke="black" d="M199,-2435.5C199,-2435.5 522,-2435.5 522,-2435.5 528,-2435.5 534,-2441.5 534,-2447.5 534,-2447.5 534,-2469.5 534,-2469.5 534,-2475.5 528,-2481.5 522,-2481.5 522,-2481.5 199,-2481.5 199,-2481.5 193,-2481.5 187,-2475.5 187,-2469.5 187,-2469.5 187,-2447.5 187,-2447.5 187,-2441.5 193,-2435.5 199,-2435.5"/>
<text text-anchor="middle" x="360.5" y="-2466.3" font-family="Times,serif" font-size="14.00" fill="#000000">qkv.weight</text>
<polyline fill="none" stroke="black" points="187,-2458.5 534,-2458.5 "/>
<text text-anchor="middle" x="360.5" y="-2443.3" font-family="Times,serif" font-size="14.00" fill="#000000">op_code=get_parametertorch.float32[192, 64]</text>
</g>
<!-- qkv.weight&#45;&gt;qkv -->
<g id="edge1" class="edge">
<title>qkv.weight&#45;&gt;qkv</title>
<path fill="none" stroke="black" d="M360.5,-2435.25C360.5,-2421.76 360.5,-2403.77 360.5,-2385.98"/>
<polygon fill="black" stroke="black" points="364,-2385.56 360.5,-2375.56 357,-2385.56 364,-2385.56"/>
</g>
<!-- qkv.bias -->
<g id="node4" class="node">
<title>qkv.bias</title>
<path fill="Salmon" stroke="black" d="M564.5,-2435.5C564.5,-2435.5 860.5,-2435.5 860.5,-2435.5 866.5,-2435.5 872.5,-2441.5 872.5,-2447.5 872.5,-2447.5 872.5,-2469.5 872.5,-2469.5 872.5,-2475.5 866.5,-2481.5 860.5,-2481.5 860.5,-2481.5 564.5,-2481.5 564.5,-2481.5 558.5,-2481.5 552.5,-2475.5 552.5,-2469.5 552.5,-2469.5 552.5,-2447.5 552.5,-2447.5 552.5,-2441.5 558.5,-2435.5 564.5,-2435.5"/>
<text text-anchor="middle" x="712.5" y="-2466.3" font-family="Times,serif" font-size="14.00" fill="#000000">qkv.bias</text>
<polyline fill="none" stroke="black" points="552.5,-2458.5 872.5,-2458.5 "/>
<text text-anchor="middle" x="712.5" y="-2443.3" font-family="Times,serif" font-size="14.00" fill="#000000">op_code=get_parametertorch.float32[192]</text>
</g>
<!-- qkv.bias&#45;&gt;qkv -->
<g id="edge2" class="edge">
<title>qkv.bias&#45;&gt;qkv</title>
<path fill="none" stroke="black" d="M656.34,-2435.4C611.2,-2417.64 546.03,-2392 488.34,-2369.3"/>
<polygon fill="black" stroke="black" points="489.37,-2365.94 478.78,-2365.54 486.81,-2372.46 489.37,-2365.94"/>
</g>
<!-- qkv_2 -->
<g id="node6" class="node">
<title>qkv_2</title>
<path fill="#ffe7ba" stroke="black" d="M287,-1776.5C287,-1776.5 434,-1776.5 434,-1776.5 440,-1776.5 446,-1782.5 446,-1788.5 446,-1788.5 446,-1969.5 446,-1969.5 446,-1975.5 440,-1981.5 434,-1981.5 434,-1981.5 287,-1981.5 287,-1981.5 281,-1981.5 275,-1975.5 275,-1969.5 275,-1969.5 275,-1788.5 275,-1788.5 275,-1782.5 281,-1776.5 287,-1776.5"/>
<text text-anchor="middle" x="360.5" y="-1966.3" font-family="Times,serif" font-size="14.00" fill="#000000">name=%qkv_2</text>
<polyline fill="none" stroke="black" points="275,-1958.5 446,-1958.5 "/>
<text text-anchor="middle" x="360.5" y="-1943.3" font-family="Times,serif" font-size="14.00" fill="#000000">op_code=call_method</text>
<polyline fill="none" stroke="black" points="275,-1935.5 446,-1935.5 "/>
<text text-anchor="middle" x="360.5" y="-1920.3" font-family="Times,serif" font-size="14.00" fill="#000000">target=permute</text>
<polyline fill="none" stroke="black" points="275,-1912.5 446,-1912.5 "/>
<text text-anchor="start" x="283" y="-1897.3" font-family="Times,serif" font-size="14.00" fill="#000000">args=(</text>
<text text-anchor="middle" x="360.5" y="-1882.3" font-family="Times,serif" font-size="14.00" fill="#000000">2,</text>
<text text-anchor="middle" x="360.5" y="-1867.3" font-family="Times,serif" font-size="14.00" fill="#000000">0,</text>
<text text-anchor="middle" x="360.5" y="-1852.3" font-family="Times,serif" font-size="14.00" fill="#000000">3,</text>
<text text-anchor="middle" x="360.5" y="-1837.3" font-family="Times,serif" font-size="14.00" fill="#000000">1,</text>
<text text-anchor="middle" x="360.5" y="-1822.3" font-family="Times,serif" font-size="14.00" fill="#000000">4,</text>
<text text-anchor="start" x="283" y="-1807.3" font-family="Times,serif" font-size="14.00" fill="#000000">)</text>
<polyline fill="none" stroke="black" points="275,-1799.5 446,-1799.5 "/>
<text text-anchor="middle" x="360.5" y="-1784.3" font-family="Times,serif" font-size="14.00" fill="#000000">num_users=1</text>
</g>
<!-- qkv_1&#45;&gt;qkv_2 -->
<g id="edge7" class="edge">
<title>qkv_1&#45;&gt;qkv_2</title>
<path fill="none" stroke="black" d="M360.5,-2018.22C360.5,-2009.4 360.5,-2000.45 360.5,-1991.56"/>
<polygon fill="black" stroke="black" points="364,-1991.56 360.5,-1981.56 357,-1991.56 364,-1991.56"/>
</g>
<!-- unbind -->
<g id="node7" class="node">
<title>unbind</title>
<path fill="#fff68f" stroke="black" d="M287,-1624.5C287,-1624.5 434,-1624.5 434,-1624.5 440,-1624.5 446,-1630.5 446,-1636.5 446,-1636.5 446,-1727.5 446,-1727.5 446,-1733.5 440,-1739.5 434,-1739.5 434,-1739.5 287,-1739.5 287,-1739.5 281,-1739.5 275,-1733.5 275,-1727.5 275,-1727.5 275,-1636.5 275,-1636.5 275,-1630.5 281,-1624.5 287,-1624.5"/>
<text text-anchor="middle" x="360.5" y="-1724.3" font-family="Times,serif" font-size="14.00" fill="#000000">name=%unbind</text>
<polyline fill="none" stroke="black" points="275,-1716.5 446,-1716.5 "/>
<text text-anchor="middle" x="360.5" y="-1701.3" font-family="Times,serif" font-size="14.00" fill="#000000">op_code=call_method</text>
<polyline fill="none" stroke="black" points="275,-1693.5 446,-1693.5 "/>
<text text-anchor="middle" x="360.5" y="-1678.3" font-family="Times,serif" font-size="14.00" fill="#000000">target=unbind</text>
<polyline fill="none" stroke="black" points="275,-1670.5 446,-1670.5 "/>
<text text-anchor="middle" x="360.5" y="-1655.3" font-family="Times,serif" font-size="14.00" fill="#000000">args=(0,)</text>
<polyline fill="none" stroke="black" points="275,-1647.5 446,-1647.5 "/>
<text text-anchor="middle" x="360.5" y="-1632.3" font-family="Times,serif" font-size="14.00" fill="#000000">num_users=3</text>
</g>
<!-- qkv_2&#45;&gt;unbind -->
<g id="edge8" class="edge">
<title>qkv_2&#45;&gt;unbind</title>
<path fill="none" stroke="black" d="M360.5,-1776.22C360.5,-1767.29 360.5,-1758.41 360.5,-1749.87"/>
<polygon fill="black" stroke="black" points="364,-1749.66 360.5,-1739.66 357,-1749.66 364,-1749.66"/>
</g>
<!-- q -->
<g id="node8" class="node">
<title>q</title>
<path fill="#fff0f5" stroke="black" d="M75.5,-1298C75.5,-1298 251.5,-1298 251.5,-1298 257.5,-1298 263.5,-1304 263.5,-1310 263.5,-1310 263.5,-1401 263.5,-1401 263.5,-1407 257.5,-1413 251.5,-1413 251.5,-1413 75.5,-1413 75.5,-1413 69.5,-1413 63.5,-1407 63.5,-1401 63.5,-1401 63.5,-1310 63.5,-1310 63.5,-1304 69.5,-1298 75.5,-1298"/>
<text text-anchor="middle" x="163.5" y="-1397.8" font-family="Times,serif" font-size="14.00" fill="#000000">name=%q</text>
<polyline fill="none" stroke="black" points="63.5,-1390 263.5,-1390 "/>
<text text-anchor="middle" x="163.5" y="-1374.8" font-family="Times,serif" font-size="14.00" fill="#000000">op_code=call_function</text>
<polyline fill="none" stroke="black" points="63.5,-1367 263.5,-1367 "/>
<text text-anchor="middle" x="163.5" y="-1351.8" font-family="Times,serif" font-size="14.00" fill="#000000">target=_operator.getitem</text>
<polyline fill="none" stroke="black" points="63.5,-1344 263.5,-1344 "/>
<text text-anchor="middle" x="163.5" y="-1328.8" font-family="Times,serif" font-size="14.00" fill="#000000">args=(0,)</text>
<polyline fill="none" stroke="black" points="63.5,-1321 263.5,-1321 "/>
<text text-anchor="middle" x="163.5" y="-1305.8" font-family="Times,serif" font-size="14.00" fill="#000000">num_users=1</text>
</g>
<!-- unbind&#45;&gt;q -->
<g id="edge9" class="edge">
<title>unbind&#45;&gt;q</title>
<path fill="none" stroke="black" d="M284.01,-1624.49C272.07,-1613.33 260.67,-1601.01 251.5,-1588 216.16,-1537.86 192.88,-1471.7 179.19,-1422.96"/>
<polygon fill="black" stroke="black" points="182.52,-1421.86 176.5,-1413.14 175.77,-1423.71 182.52,-1421.86"/>
</g>
<!-- k -->
<g id="node9" class="node">
<title>k</title>
<path fill="#fff0f5" stroke="black" d="M272.5,-1472.5C272.5,-1472.5 448.5,-1472.5 448.5,-1472.5 454.5,-1472.5 460.5,-1478.5 460.5,-1484.5 460.5,-1484.5 460.5,-1575.5 460.5,-1575.5 460.5,-1581.5 454.5,-1587.5 448.5,-1587.5 448.5,-1587.5 272.5,-1587.5 272.5,-1587.5 266.5,-1587.5 260.5,-1581.5 260.5,-1575.5 260.5,-1575.5 260.5,-1484.5 260.5,-1484.5 260.5,-1478.5 266.5,-1472.5 272.5,-1472.5"/>
<text text-anchor="middle" x="360.5" y="-1572.3" font-family="Times,serif" font-size="14.00" fill="#000000">name=%k</text>
<polyline fill="none" stroke="black" points="260.5,-1564.5 460.5,-1564.5 "/>
<text text-anchor="middle" x="360.5" y="-1549.3" font-family="Times,serif" font-size="14.00" fill="#000000">op_code=call_function</text>
<polyline fill="none" stroke="black" points="260.5,-1541.5 460.5,-1541.5 "/>
<text text-anchor="middle" x="360.5" y="-1526.3" font-family="Times,serif" font-size="14.00" fill="#000000">target=_operator.getitem</text>
<polyline fill="none" stroke="black" points="260.5,-1518.5 460.5,-1518.5 "/>
<text text-anchor="middle" x="360.5" y="-1503.3" font-family="Times,serif" font-size="14.00" fill="#000000">args=(1,)</text>
<polyline fill="none" stroke="black" points="260.5,-1495.5 460.5,-1495.5 "/>
<text text-anchor="middle" x="360.5" y="-1480.3" font-family="Times,serif" font-size="14.00" fill="#000000">num_users=1</text>
</g>
<!-- unbind&#45;&gt;k -->
<g id="edge10" class="edge">
<title>unbind&#45;&gt;k</title>
<path fill="none" stroke="black" d="M360.5,-1624.29C360.5,-1615.7 360.5,-1606.78 360.5,-1598"/>
<polygon fill="black" stroke="black" points="364,-1597.79 360.5,-1587.79 357,-1597.79 364,-1597.79"/>
</g>
<!-- v -->
<g id="node10" class="node">
<title>v</title>
<path fill="#fff0f5" stroke="black" d="M400.5,-1123.5C400.5,-1123.5 576.5,-1123.5 576.5,-1123.5 582.5,-1123.5 588.5,-1129.5 588.5,-1135.5 588.5,-1135.5 588.5,-1226.5 588.5,-1226.5 588.5,-1232.5 582.5,-1238.5 576.5,-1238.5 576.5,-1238.5 400.5,-1238.5 400.5,-1238.5 394.5,-1238.5 388.5,-1232.5 388.5,-1226.5 388.5,-1226.5 388.5,-1135.5 388.5,-1135.5 388.5,-1129.5 394.5,-1123.5 400.5,-1123.5"/>
<text text-anchor="middle" x="488.5" y="-1223.3" font-family="Times,serif" font-size="14.00" fill="#000000">name=%v</text>
<polyline fill="none" stroke="black" points="388.5,-1215.5 588.5,-1215.5 "/>
<text text-anchor="middle" x="488.5" y="-1200.3" font-family="Times,serif" font-size="14.00" fill="#000000">op_code=call_function</text>
<polyline fill="none" stroke="black" points="388.5,-1192.5 588.5,-1192.5 "/>
<text text-anchor="middle" x="488.5" y="-1177.3" font-family="Times,serif" font-size="14.00" fill="#000000">target=_operator.getitem</text>
<polyline fill="none" stroke="black" points="388.5,-1169.5 588.5,-1169.5 "/>
<text text-anchor="middle" x="488.5" y="-1154.3" font-family="Times,serif" font-size="14.00" fill="#000000">args=(2,)</text>
<polyline fill="none" stroke="black" points="388.5,-1146.5 588.5,-1146.5 "/>
<text text-anchor="middle" x="488.5" y="-1131.3" font-family="Times,serif" font-size="14.00" fill="#000000">num_users=1</text>
</g>
<!-- unbind&#45;&gt;v -->
<g id="edge11" class="edge">
<title>unbind&#45;&gt;v</title>
<path fill="none" stroke="black" d="M443.06,-1624.23C453.61,-1613.43 462.99,-1601.29 469.5,-1588 523.05,-1478.7 513.07,-1332.37 500.85,-1248.53"/>
<polygon fill="black" stroke="black" points="504.31,-1247.99 499.35,-1238.63 497.39,-1249.04 504.31,-1247.99"/>
</g>
<!-- attn_scores -->
<g id="node12" class="node">
<title>attn_scores</title>
<path fill="#cdb5cd" stroke="black" d="M206.5,-1135C206.5,-1135 358.5,-1135 358.5,-1135 364.5,-1135 370.5,-1141 370.5,-1147 370.5,-1147 370.5,-1215 370.5,-1215 370.5,-1221 364.5,-1227 358.5,-1227 358.5,-1227 206.5,-1227 206.5,-1227 200.5,-1227 194.5,-1221 194.5,-1215 194.5,-1215 194.5,-1147 194.5,-1147 194.5,-1141 200.5,-1135 206.5,-1135"/>
<text text-anchor="middle" x="282.5" y="-1211.8" font-family="Times,serif" font-size="14.00" fill="#000000">name=%attn_scores</text>
<polyline fill="none" stroke="black" points="194.5,-1204 370.5,-1204 "/>
<text text-anchor="middle" x="282.5" y="-1188.8" font-family="Times,serif" font-size="14.00" fill="#000000">op_code=call_function</text>
<polyline fill="none" stroke="black" points="194.5,-1181 370.5,-1181 "/>
<text text-anchor="middle" x="282.5" y="-1165.8" font-family="Times,serif" font-size="14.00" fill="#000000">target=torch.matmul</text>
<polyline fill="none" stroke="black" points="194.5,-1158 370.5,-1158 "/>
<text text-anchor="middle" x="282.5" y="-1142.8" font-family="Times,serif" font-size="14.00" fill="#000000">num_users=1</text>
</g>
<!-- q&#45;&gt;attn_scores -->
<g id="edge12" class="edge">
<title>q&#45;&gt;attn_scores</title>
<path fill="none" stroke="black" d="M202.79,-1297.54C216.6,-1277.53 232.05,-1255.14 245.64,-1235.43"/>
<polygon fill="black" stroke="black" points="248.55,-1237.38 251.34,-1227.16 242.78,-1233.41 248.55,-1237.38"/>
</g>
<!-- transpose -->
<g id="node11" class="node">
<title>transpose</title>
<path fill="#eed5d2" stroke="black" d="M294,-1275.5C294,-1275.5 441,-1275.5 441,-1275.5 447,-1275.5 453,-1281.5 453,-1287.5 453,-1287.5 453,-1423.5 453,-1423.5 453,-1429.5 447,-1435.5 441,-1435.5 441,-1435.5 294,-1435.5 294,-1435.5 288,-1435.5 282,-1429.5 282,-1423.5 282,-1423.5 282,-1287.5 282,-1287.5 282,-1281.5 288,-1275.5 294,-1275.5"/>
<text text-anchor="middle" x="367.5" y="-1420.3" font-family="Times,serif" font-size="14.00" fill="#000000">name=%transpose</text>
<polyline fill="none" stroke="black" points="282,-1412.5 453,-1412.5 "/>
<text text-anchor="middle" x="367.5" y="-1397.3" font-family="Times,serif" font-size="14.00" fill="#000000">op_code=call_method</text>
<polyline fill="none" stroke="black" points="282,-1389.5 453,-1389.5 "/>
<text text-anchor="middle" x="367.5" y="-1374.3" font-family="Times,serif" font-size="14.00" fill="#000000">target=transpose</text>
<polyline fill="none" stroke="black" points="282,-1366.5 453,-1366.5 "/>
<text text-anchor="start" x="290" y="-1351.3" font-family="Times,serif" font-size="14.00" fill="#000000">args=(</text>
<text text-anchor="middle" x="367.5" y="-1336.3" font-family="Times,serif" font-size="14.00" fill="#000000">&#45;2,</text>
<text text-anchor="middle" x="367.5" y="-1321.3" font-family="Times,serif" font-size="14.00" fill="#000000">&#45;1,</text>
<text text-anchor="start" x="290" y="-1306.3" font-family="Times,serif" font-size="14.00" fill="#000000">)</text>
<polyline fill="none" stroke="black" points="282,-1298.5 453,-1298.5 "/>
<text text-anchor="middle" x="367.5" y="-1283.3" font-family="Times,serif" font-size="14.00" fill="#000000">num_users=1</text>
</g>
<!-- k&#45;&gt;transpose -->
<g id="edge13" class="edge">
<title>k&#45;&gt;transpose</title>
<path fill="none" stroke="black" d="M362.81,-1472.04C363.16,-1463.55 363.52,-1454.64 363.88,-1445.68"/>
<polygon fill="black" stroke="black" points="367.38,-1445.71 364.29,-1435.57 360.39,-1445.42 367.38,-1445.71"/>
</g>
<!-- attn_output -->
<g id="node15" class="node">
<title>attn_output</title>
<path fill="#cdb5cd" stroke="black" d="M319.5,-690.5C319.5,-690.5 471.5,-690.5 471.5,-690.5 477.5,-690.5 483.5,-696.5 483.5,-702.5 483.5,-702.5 483.5,-770.5 483.5,-770.5 483.5,-776.5 477.5,-782.5 471.5,-782.5 471.5,-782.5 319.5,-782.5 319.5,-782.5 313.5,-782.5 307.5,-776.5 307.5,-770.5 307.5,-770.5 307.5,-702.5 307.5,-702.5 307.5,-696.5 313.5,-690.5 319.5,-690.5"/>
<text text-anchor="middle" x="395.5" y="-767.3" font-family="Times,serif" font-size="14.00" fill="#000000">name=%attn_output</text>
<polyline fill="none" stroke="black" points="307.5,-759.5 483.5,-759.5 "/>
<text text-anchor="middle" x="395.5" y="-744.3" font-family="Times,serif" font-size="14.00" fill="#000000">op_code=call_function</text>
<polyline fill="none" stroke="black" points="307.5,-736.5 483.5,-736.5 "/>
<text text-anchor="middle" x="395.5" y="-721.3" font-family="Times,serif" font-size="14.00" fill="#000000">target=torch.matmul</text>
<polyline fill="none" stroke="black" points="307.5,-713.5 483.5,-713.5 "/>
<text text-anchor="middle" x="395.5" y="-698.3" font-family="Times,serif" font-size="14.00" fill="#000000">num_users=1</text>
</g>
<!-- v&#45;&gt;attn_output -->
<g id="edge14" class="edge">
<title>v&#45;&gt;attn_output</title>
<path fill="none" stroke="black" d="M493.47,-1123.38C497.74,-1050.37 498.01,-920.71 458.5,-819 454.77,-809.4 449.53,-799.99 443.65,-791.18"/>
<polygon fill="black" stroke="black" points="446.46,-789.09 437.84,-782.93 440.73,-793.12 446.46,-789.09"/>
</g>
<!-- transpose&#45;&gt;attn_scores -->
<g id="edge15" class="edge">
<title>transpose&#45;&gt;attn_scores</title>
<path fill="none" stroke="black" d="M328.48,-1275.32C322.01,-1262.19 315.44,-1248.84 309.36,-1236.5"/>
<polygon fill="black" stroke="black" points="312.37,-1234.71 304.81,-1227.28 306.09,-1237.8 312.37,-1234.71"/>
</g>
<!-- attn_scores_1 -->
<g id="node13" class="node">
<title>attn_scores_1</title>
<path fill="#fff0f5" stroke="black" d="M217.5,-971.5C217.5,-971.5 389.5,-971.5 389.5,-971.5 395.5,-971.5 401.5,-977.5 401.5,-983.5 401.5,-983.5 401.5,-1074.5 401.5,-1074.5 401.5,-1080.5 395.5,-1086.5 389.5,-1086.5 389.5,-1086.5 217.5,-1086.5 217.5,-1086.5 211.5,-1086.5 205.5,-1080.5 205.5,-1074.5 205.5,-1074.5 205.5,-983.5 205.5,-983.5 205.5,-977.5 211.5,-971.5 217.5,-971.5"/>
<text text-anchor="middle" x="303.5" y="-1071.3" font-family="Times,serif" font-size="14.00" fill="#000000">name=%attn_scores_1</text>
<polyline fill="none" stroke="black" points="205.5,-1063.5 401.5,-1063.5 "/>
<text text-anchor="middle" x="303.5" y="-1048.3" font-family="Times,serif" font-size="14.00" fill="#000000">op_code=call_function</text>
<polyline fill="none" stroke="black" points="205.5,-1040.5 401.5,-1040.5 "/>
<text text-anchor="middle" x="303.5" y="-1025.3" font-family="Times,serif" font-size="14.00" fill="#000000">target=_operator.truediv</text>
<polyline fill="none" stroke="black" points="205.5,-1017.5 401.5,-1017.5 "/>
<text text-anchor="middle" x="303.5" y="-1002.3" font-family="Times,serif" font-size="14.00" fill="#000000">args=(4.0,)</text>
<polyline fill="none" stroke="black" points="205.5,-994.5 401.5,-994.5 "/>
<text text-anchor="middle" x="303.5" y="-979.3" font-family="Times,serif" font-size="14.00" fill="#000000">num_users=1</text>
</g>
<!-- attn_scores&#45;&gt;attn_scores_1 -->
<g id="edge16" class="edge">
<title>attn_scores&#45;&gt;attn_scores_1</title>
<path fill="none" stroke="black" d="M288.8,-1135C290.48,-1123.01 292.33,-1109.8 294.13,-1096.92"/>
<polygon fill="black" stroke="black" points="297.64,-1097.07 295.56,-1086.68 290.71,-1096.1 297.64,-1097.07"/>
</g>
<!-- attn_probs -->
<g id="node14" class="node">
<title>attn_probs</title>
<path fill="#ffe4e1" stroke="black" d="M191.5,-819.5C191.5,-819.5 437.5,-819.5 437.5,-819.5 443.5,-819.5 449.5,-825.5 449.5,-831.5 449.5,-831.5 449.5,-922.5 449.5,-922.5 449.5,-928.5 443.5,-934.5 437.5,-934.5 437.5,-934.5 191.5,-934.5 191.5,-934.5 185.5,-934.5 179.5,-928.5 179.5,-922.5 179.5,-922.5 179.5,-831.5 179.5,-831.5 179.5,-825.5 185.5,-819.5 191.5,-819.5"/>
<text text-anchor="middle" x="314.5" y="-919.3" font-family="Times,serif" font-size="14.00" fill="#000000">name=%attn_probs</text>
<polyline fill="none" stroke="black" points="179.5,-911.5 449.5,-911.5 "/>
<text text-anchor="middle" x="314.5" y="-896.3" font-family="Times,serif" font-size="14.00" fill="#000000">op_code=call_function</text>
<polyline fill="none" stroke="black" points="179.5,-888.5 449.5,-888.5 "/>
<text text-anchor="middle" x="314.5" y="-873.3" font-family="Times,serif" font-size="14.00" fill="#000000">target=torch.nn.functional.softmax</text>
<polyline fill="none" stroke="black" points="179.5,-865.5 449.5,-865.5 "/>
<text text-anchor="middle" x="314.5" y="-850.3" font-family="Times,serif" font-size="14.00" fill="#000000">kwargs={dim: &#45;1,}</text>
<polyline fill="none" stroke="black" points="179.5,-842.5 449.5,-842.5 "/>
<text text-anchor="middle" x="314.5" y="-827.3" font-family="Times,serif" font-size="14.00" fill="#000000">num_users=1</text>
</g>
<!-- attn_scores_1&#45;&gt;attn_probs -->
<g id="edge17" class="edge">
<title>attn_scores_1&#45;&gt;attn_probs</title>
<path fill="none" stroke="black" d="M307.66,-971.29C308.29,-962.7 308.94,-953.78 309.59,-945"/>
<polygon fill="black" stroke="black" points="313.09,-945.02 310.34,-934.79 306.11,-944.51 313.09,-945.02"/>
</g>
<!-- attn_probs&#45;&gt;attn_output -->
<g id="edge18" class="edge">
<title>attn_probs&#45;&gt;attn_output</title>
<path fill="none" stroke="black" d="M347.68,-819.27C352.99,-810.19 358.47,-800.82 363.74,-791.8"/>
<polygon fill="black" stroke="black" points="366.91,-793.32 368.93,-782.92 360.86,-789.79 366.91,-793.32"/>
</g>
<!-- transpose_1 -->
<g id="node16" class="node">
<title>transpose_1</title>
<path fill="#eed5d2" stroke="black" d="M322,-493.5C322,-493.5 469,-493.5 469,-493.5 475,-493.5 481,-499.5 481,-505.5 481,-505.5 481,-641.5 481,-641.5 481,-647.5 475,-653.5 469,-653.5 469,-653.5 322,-653.5 322,-653.5 316,-653.5 310,-647.5 310,-641.5 310,-641.5 310,-505.5 310,-505.5 310,-499.5 316,-493.5 322,-493.5"/>
<text text-anchor="middle" x="395.5" y="-638.3" font-family="Times,serif" font-size="14.00" fill="#000000">name=%transpose_1</text>
<polyline fill="none" stroke="black" points="310,-630.5 481,-630.5 "/>
<text text-anchor="middle" x="395.5" y="-615.3" font-family="Times,serif" font-size="14.00" fill="#000000">op_code=call_method</text>
<polyline fill="none" stroke="black" points="310,-607.5 481,-607.5 "/>
<text text-anchor="middle" x="395.5" y="-592.3" font-family="Times,serif" font-size="14.00" fill="#000000">target=transpose</text>
<polyline fill="none" stroke="black" points="310,-584.5 481,-584.5 "/>
<text text-anchor="start" x="318" y="-569.3" font-family="Times,serif" font-size="14.00" fill="#000000">args=(</text>
<text text-anchor="middle" x="395.5" y="-554.3" font-family="Times,serif" font-size="14.00" fill="#000000">1,</text>
<text text-anchor="middle" x="395.5" y="-539.3" font-family="Times,serif" font-size="14.00" fill="#000000">2,</text>
<text text-anchor="start" x="318" y="-524.3" font-family="Times,serif" font-size="14.00" fill="#000000">)</text>
<polyline fill="none" stroke="black" points="310,-516.5 481,-516.5 "/>
<text text-anchor="middle" x="395.5" y="-501.3" font-family="Times,serif" font-size="14.00" fill="#000000">num_users=1</text>
</g>
<!-- attn_output&#45;&gt;transpose_1 -->
<g id="edge19" class="edge">
<title>attn_output&#45;&gt;transpose_1</title>
<path fill="none" stroke="black" d="M395.5,-690.22C395.5,-681.82 395.5,-672.78 395.5,-663.59"/>
<polygon fill="black" stroke="black" points="399,-663.59 395.5,-653.59 392,-663.59 399,-663.59"/>
</g>
<!-- attn_output_1 -->
<g id="node17" class="node">
<title>attn_output_1</title>
<path fill="#98f5ff" stroke="black" d="M317.5,-281.5C317.5,-281.5 473.5,-281.5 473.5,-281.5 479.5,-281.5 485.5,-287.5 485.5,-293.5 485.5,-293.5 485.5,-444.5 485.5,-444.5 485.5,-450.5 479.5,-456.5 473.5,-456.5 473.5,-456.5 317.5,-456.5 317.5,-456.5 311.5,-456.5 305.5,-450.5 305.5,-444.5 305.5,-444.5 305.5,-293.5 305.5,-293.5 305.5,-287.5 311.5,-281.5 317.5,-281.5"/>
<text text-anchor="middle" x="395.5" y="-441.3" font-family="Times,serif" font-size="14.00" fill="#000000">name=%attn_output_1</text>
<polyline fill="none" stroke="black" points="305.5,-433.5 485.5,-433.5 "/>
<text text-anchor="middle" x="395.5" y="-418.3" font-family="Times,serif" font-size="14.00" fill="#000000">op_code=call_method</text>
<polyline fill="none" stroke="black" points="305.5,-410.5 485.5,-410.5 "/>
<text text-anchor="middle" x="395.5" y="-395.3" font-family="Times,serif" font-size="14.00" fill="#000000">target=reshape</text>
<polyline fill="none" stroke="black" points="305.5,-387.5 485.5,-387.5 "/>
<text text-anchor="start" x="313.5" y="-372.3" font-family="Times,serif" font-size="14.00" fill="#000000">args=(</text>
<text text-anchor="middle" x="395.5" y="-357.3" font-family="Times,serif" font-size="14.00" fill="#000000">2,</text>
<text text-anchor="middle" x="395.5" y="-342.3" font-family="Times,serif" font-size="14.00" fill="#000000">10,</text>
<text text-anchor="middle" x="395.5" y="-327.3" font-family="Times,serif" font-size="14.00" fill="#000000">64,</text>
<text text-anchor="start" x="313.5" y="-312.3" font-family="Times,serif" font-size="14.00" fill="#000000">)</text>
<polyline fill="none" stroke="black" points="305.5,-304.5 485.5,-304.5 "/>
<text text-anchor="middle" x="395.5" y="-289.3" font-family="Times,serif" font-size="14.00" fill="#000000">num_users=1</text>
</g>
<!-- transpose_1&#45;&gt;attn_output_1 -->
<g id="edge20" class="edge">
<title>transpose_1&#45;&gt;attn_output_1</title>
<path fill="none" stroke="black" d="M395.5,-493.34C395.5,-484.63 395.5,-475.7 395.5,-466.81"/>
<polygon fill="black" stroke="black" points="399,-466.81 395.5,-456.81 392,-466.81 399,-466.81"/>
</g>
<!-- output -->
<g id="node18" class="node">
<title>output</title>
<path fill="#fffacd" stroke="black" d="M566.5,-129.5C566.5,-129.5 778.5,-129.5 778.5,-129.5 784.5,-129.5 790.5,-135.5 790.5,-141.5 790.5,-141.5 790.5,-232.5 790.5,-232.5 790.5,-238.5 784.5,-244.5 778.5,-244.5 778.5,-244.5 566.5,-244.5 566.5,-244.5 560.5,-244.5 554.5,-238.5 554.5,-232.5 554.5,-232.5 554.5,-141.5 554.5,-141.5 554.5,-135.5 560.5,-129.5 566.5,-129.5"/>
<text text-anchor="middle" x="672.5" y="-229.3" font-family="Times,serif" font-size="14.00" fill="#000000">name=%output</text>
<polyline fill="none" stroke="black" points="554.5,-221.5 790.5,-221.5 "/>
<text text-anchor="middle" x="672.5" y="-206.3" font-family="Times,serif" font-size="14.00" fill="#000000">op_code=call_module</text>
<text text-anchor="middle" x="672.5" y="-175.3" font-family="Times,serif" font-size="14.00" fill="#000000">torch.nn.modules.linear.Linear</text>
<polyline fill="none" stroke="black" points="554.5,-167.5 790.5,-167.5 "/>
<text text-anchor="middle" x="672.5" y="-152.3" font-family="Times,serif" font-size="14.00" fill="#000000">in_features: 64</text>
<text text-anchor="middle" x="672.5" y="-137.3" font-family="Times,serif" font-size="14.00" fill="#000000">out_features: 64</text>
</g>
<!-- attn_output_1&#45;&gt;output -->
<g id="edge21" class="edge">
<title>attn_output_1&#45;&gt;output</title>
<path fill="none" stroke="black" d="M485.71,-287.23C488.64,-285.09 491.58,-283.01 494.5,-281 510.41,-270.08 527.77,-259.54 545.2,-249.72"/>
<polygon fill="black" stroke="black" points="547.27,-252.57 554.31,-244.65 543.87,-246.45 547.27,-252.57"/>
</g>
<!-- output_1 -->
<g id="node21" class="node">
<title>output_1</title>
<path fill="PowderBlue" stroke="black" d="M612.5,-0.5C612.5,-0.5 732.5,-0.5 732.5,-0.5 738.5,-0.5 744.5,-6.5 744.5,-12.5 744.5,-12.5 744.5,-80.5 744.5,-80.5 744.5,-86.5 738.5,-92.5 732.5,-92.5 732.5,-92.5 612.5,-92.5 612.5,-92.5 606.5,-92.5 600.5,-86.5 600.5,-80.5 600.5,-80.5 600.5,-12.5 600.5,-12.5 600.5,-6.5 606.5,-0.5 612.5,-0.5"/>
<text text-anchor="middle" x="672.5" y="-77.3" font-family="Times,serif" font-size="14.00" fill="#000000">name=%output_1</text>
<polyline fill="none" stroke="black" points="600.5,-69.5 744.5,-69.5 "/>
<text text-anchor="middle" x="672.5" y="-54.3" font-family="Times,serif" font-size="14.00" fill="#000000">op_code=output</text>
<polyline fill="none" stroke="black" points="600.5,-46.5 744.5,-46.5 "/>
<text text-anchor="middle" x="672.5" y="-31.3" font-family="Times,serif" font-size="14.00" fill="#000000">target=output</text>
<polyline fill="none" stroke="black" points="600.5,-23.5 744.5,-23.5 "/>
<text text-anchor="middle" x="672.5" y="-8.3" font-family="Times,serif" font-size="14.00" fill="#000000">num_users=0</text>
</g>
<!-- output&#45;&gt;output_1 -->
<g id="edge22" class="edge">
<title>output&#45;&gt;output_1</title>
<path fill="none" stroke="black" d="M672.5,-129.27C672.5,-120.57 672.5,-111.6 672.5,-102.93"/>
<polygon fill="black" stroke="black" points="676,-102.92 672.5,-92.92 669,-102.92 676,-102.92"/>
</g>
<!-- output.weight -->
<g id="node19" class="node">
<title>output.weight</title>
<path fill="Salmon" stroke="black" d="M515.5,-346C515.5,-346 829.5,-346 829.5,-346 835.5,-346 841.5,-352 841.5,-358 841.5,-358 841.5,-380 841.5,-380 841.5,-386 835.5,-392 829.5,-392 829.5,-392 515.5,-392 515.5,-392 509.5,-392 503.5,-386 503.5,-380 503.5,-380 503.5,-358 503.5,-358 503.5,-352 509.5,-346 515.5,-346"/>
<text text-anchor="middle" x="672.5" y="-376.8" font-family="Times,serif" font-size="14.00" fill="#000000">output.weight</text>
<polyline fill="none" stroke="black" points="503.5,-369 841.5,-369 "/>
<text text-anchor="middle" x="672.5" y="-353.8" font-family="Times,serif" font-size="14.00" fill="#000000">op_code=get_parametertorch.float32[64, 64]</text>
</g>
<!-- output.weight&#45;&gt;output -->
<g id="edge3" class="edge">
<title>output.weight&#45;&gt;output</title>
<path fill="none" stroke="black" d="M672.5,-345.93C672.5,-323.31 672.5,-287.01 672.5,-254.91"/>
<polygon fill="black" stroke="black" points="676,-254.66 672.5,-244.66 669,-254.66 676,-254.66"/>
</g>
<!-- output.bias -->
<g id="node20" class="node">
<title>output.bias</title>
<path fill="Salmon" stroke="black" d="M872,-346C872,-346 1159,-346 1159,-346 1165,-346 1171,-352 1171,-358 1171,-358 1171,-380 1171,-380 1171,-386 1165,-392 1159,-392 1159,-392 872,-392 872,-392 866,-392 860,-386 860,-380 860,-380 860,-358 860,-358 860,-352 866,-346 872,-346"/>
<text text-anchor="middle" x="1015.5" y="-376.8" font-family="Times,serif" font-size="14.00" fill="#000000">output.bias</text>
<polyline fill="none" stroke="black" points="860,-369 1171,-369 "/>
<text text-anchor="middle" x="1015.5" y="-353.8" font-family="Times,serif" font-size="14.00" fill="#000000">op_code=get_parametertorch.float32[64]</text>
</g>
<!-- output.bias&#45;&gt;output -->
<g id="edge4" class="edge">
<title>output.bias&#45;&gt;output</title>
<path fill="none" stroke="black" d="M973.82,-345.97C940.47,-328.35 892.51,-303.05 850.5,-281 831,-270.77 810.29,-259.92 790.15,-249.39"/>
<polygon fill="black" stroke="black" points="791.74,-246.27 781.26,-244.74 788.5,-252.47 791.74,-246.27"/>
</g>
</g>
</svg>
