<?xml version="1.0" encoding="UTF-8" standalone="no"?>
<!DOCTYPE svg PUBLIC "-//W3C//DTD SVG 1.1//EN"
 "http://www.w3.org/Graphics/SVG/1.1/DTD/svg11.dtd">
<!-- Generated by graphviz version 2.43.0 (0)
 -->
<!-- Title: %3 Pages: 1 -->
<svg width="292pt" height="864pt"
 viewBox="0.00 0.00 291.60 864.00" xmlns="http://www.w3.org/2000/svg" xmlns:xlink="http://www.w3.org/1999/xlink">
<g id="graph0" class="graph" transform="scale(0.64 0.64) rotate(0) translate(4 1356)">
<title>%3</title>
<polygon fill="white" stroke="transparent" points="-4,4 -4,-1356 455,-1356 455,4 -4,4"/>
<!-- 140194818100112 -->
<g id="node1" class="node">
<title>140194818100112</title>
<polygon fill="#caff70" stroke="black" points="318,-31 217,-31 217,0 318,0 318,-31"/>
<text text-anchor="middle" x="267.5" y="-7" font-family="monospace" font-size="10.00"> (1, 197, 768)</text>
</g>
<!-- 140194817997696 -->
<g id="node2" class="node">
<title>140194817997696</title>
<polygon fill="lightgrey" stroke="black" points="269,-92 144,-92 144,-73 269,-73 269,-92"/>
<text text-anchor="middle" x="206.5" y="-80" font-family="monospace" font-size="10.00">TransposeBackward0</text>
</g>
<!-- 140194817997696&#45;&gt;140194818100112 -->
<g id="edge39" class="edge">
<title>140194817997696&#45;&gt;140194818100112</title>
<path fill="none" stroke="black" d="M214.73,-72.73C222.94,-63.98 235.9,-50.17 246.92,-38.43"/>
<polygon fill="black" stroke="black" points="249.52,-40.77 253.81,-31.08 244.42,-35.98 249.52,-40.77"/>
</g>
<!-- 140194817997216 -->
<g id="node3" class="node">
<title>140194817997216</title>
<polygon fill="lightgrey" stroke="black" points="277,-153 182,-153 182,-134 277,-134 277,-153"/>
<text text-anchor="middle" x="229.5" y="-141" font-family="monospace" font-size="10.00">ViewBackward0</text>
</g>
<!-- 140194817997216&#45;&gt;140194817997696 -->
<g id="edge1" class="edge">
<title>140194817997216&#45;&gt;140194817997696</title>
<path fill="none" stroke="black" d="M226.11,-133.79C222.84,-125.43 217.81,-112.52 213.66,-101.88"/>
<polygon fill="black" stroke="black" points="216.8,-100.29 209.91,-92.24 210.28,-102.83 216.8,-100.29"/>
</g>
<!-- 140194817997024 -->
<g id="node4" class="node">
<title>140194817997024</title>
<polygon fill="lightgrey" stroke="black" points="318,-208 217,-208 217,-189 318,-189 318,-208"/>
<text text-anchor="middle" x="267.5" y="-196" font-family="monospace" font-size="10.00">AddmmBackward0</text>
</g>
<!-- 140194817997024&#45;&gt;140194817997216 -->
<g id="edge2" class="edge">
<title>140194817997024&#45;&gt;140194817997216</title>
<path fill="none" stroke="black" d="M261.23,-188.75C255.91,-181.34 248.14,-170.5 241.62,-161.41"/>
<polygon fill="black" stroke="black" points="244.33,-159.18 235.66,-153.09 238.64,-163.26 244.33,-159.18"/>
</g>
<!-- 140194818100304 -->
<g id="node39" class="node">
<title>140194818100304</title>
<polygon fill="#a2cd5a" stroke="black" points="370,-98 287,-98 287,-67 370,-67 370,-98"/>
<text text-anchor="middle" x="328.5" y="-74" font-family="monospace" font-size="10.00"> (197, 768)</text>
</g>
<!-- 140194817997024&#45;&gt;140194818100304 -->
<g id="edge40" class="edge">
<title>140194817997024&#45;&gt;140194818100304</title>
<path fill="none" stroke="black" d="M272.08,-188.93C281.27,-171.76 302.23,-132.6 315.85,-107.14"/>
<polygon fill="black" stroke="black" points="319.04,-108.6 320.67,-98.13 312.87,-105.29 319.04,-108.6"/>
</g>
<!-- 140194817996976 -->
<g id="node5" class="node">
<title>140194817996976</title>
<polygon fill="lightgrey" stroke="black" points="202,-263 101,-263 101,-244 202,-244 202,-263"/>
<text text-anchor="middle" x="151.5" y="-251" font-family="monospace" font-size="10.00">AccumulateGrad</text>
</g>
<!-- 140194817996976&#45;&gt;140194817997024 -->
<g id="edge3" class="edge">
<title>140194817996976&#45;&gt;140194817997024</title>
<path fill="none" stroke="black" d="M170.14,-243.98C188.8,-235.46 217.75,-222.23 239.24,-212.41"/>
<polygon fill="black" stroke="black" points="240.88,-215.51 248.52,-208.17 237.97,-209.14 240.88,-215.51"/>
</g>
<!-- 140194818099536 -->
<g id="node6" class="node">
<title>140194818099536</title>
<polygon fill="lightblue" stroke="black" points="199,-329 104,-329 104,-299 199,-299 199,-329"/>
<text text-anchor="middle" x="151.5" y="-317" font-family="monospace" font-size="10.00">out_proj.bias</text>
<text text-anchor="middle" x="151.5" y="-306" font-family="monospace" font-size="10.00"> (768)</text>
</g>
<!-- 140194818099536&#45;&gt;140194817996976 -->
<g id="edge4" class="edge">
<title>140194818099536&#45;&gt;140194817996976</title>
<path fill="none" stroke="black" d="M151.5,-298.84C151.5,-291.21 151.5,-281.7 151.5,-273.45"/>
<polygon fill="black" stroke="black" points="155,-273.27 151.5,-263.27 148,-273.27 155,-273.27"/>
</g>
<!-- 140194817997456 -->
<g id="node7" class="node">
<title>140194817997456</title>
<polygon fill="lightgrey" stroke="black" points="315,-263 220,-263 220,-244 315,-244 315,-263"/>
<text text-anchor="middle" x="267.5" y="-251" font-family="monospace" font-size="10.00">ViewBackward0</text>
</g>
<!-- 140194817997456&#45;&gt;140194817997024 -->
<g id="edge5" class="edge">
<title>140194817997456&#45;&gt;140194817997024</title>
<path fill="none" stroke="black" d="M267.5,-243.75C267.5,-236.8 267.5,-226.85 267.5,-218.13"/>
<polygon fill="black" stroke="black" points="271,-218.09 267.5,-208.09 264,-218.09 271,-218.09"/>
</g>
<!-- 140194817996880 -->
<g id="node8" class="node">
<title>140194817996880</title>
<polygon fill="lightgrey" stroke="black" points="318,-323.5 217,-323.5 217,-304.5 318,-304.5 318,-323.5"/>
<text text-anchor="middle" x="267.5" y="-311.5" font-family="monospace" font-size="10.00">CloneBackward0</text>
</g>
<!-- 140194817996880&#45;&gt;140194817997456 -->
<g id="edge6" class="edge">
<title>140194817996880&#45;&gt;140194817997456</title>
<path fill="none" stroke="black" d="M267.5,-304.37C267.5,-296.25 267.5,-283.81 267.5,-273.39"/>
<polygon fill="black" stroke="black" points="271,-273.17 267.5,-263.17 264,-273.17 271,-273.17"/>
</g>
<!-- 140194817996544 -->
<g id="node9" class="node">
<title>140194817996544</title>
<polygon fill="lightgrey" stroke="black" points="326,-389.5 201,-389.5 201,-370.5 326,-370.5 326,-389.5"/>
<text text-anchor="middle" x="263.5" y="-377.5" font-family="monospace" font-size="10.00">TransposeBackward0</text>
</g>
<!-- 140194817996544&#45;&gt;140194817996880 -->
<g id="edge7" class="edge">
<title>140194817996544&#45;&gt;140194817996880</title>
<path fill="none" stroke="black" d="M264.04,-370.37C264.62,-361.07 265.56,-345.98 266.32,-333.9"/>
<polygon fill="black" stroke="black" points="269.81,-334.1 266.94,-323.91 262.83,-333.67 269.81,-334.1"/>
</g>
<!-- 140194817996448 -->
<g id="node10" class="node">
<title>140194817996448</title>
<polygon fill="lightgrey" stroke="black" points="308,-450 219,-450 219,-431 308,-431 308,-450"/>
<text text-anchor="middle" x="263.5" y="-438" font-family="monospace" font-size="10.00">BmmBackward0</text>
</g>
<!-- 140194817996448&#45;&gt;140194817996544 -->
<g id="edge8" class="edge">
<title>140194817996448&#45;&gt;140194817996544</title>
<path fill="none" stroke="black" d="M263.5,-430.87C263.5,-422.75 263.5,-410.31 263.5,-399.89"/>
<polygon fill="black" stroke="black" points="267,-399.67 263.5,-389.67 260,-399.67 267,-399.67"/>
</g>
<!-- 140194817996352 -->
<g id="node11" class="node">
<title>140194817996352</title>
<polygon fill="lightgrey" stroke="black" points="278,-505 165,-505 165,-486 278,-486 278,-505"/>
<text text-anchor="middle" x="221.5" y="-493" font-family="monospace" font-size="10.00">SoftmaxBackward0</text>
</g>
<!-- 140194817996352&#45;&gt;140194817996448 -->
<g id="edge9" class="edge">
<title>140194817996352&#45;&gt;140194817996448</title>
<path fill="none" stroke="black" d="M228.44,-485.75C234.37,-478.26 243.07,-467.28 250.32,-458.13"/>
<polygon fill="black" stroke="black" points="253.23,-460.1 256.69,-450.09 247.74,-455.75 253.23,-460.1"/>
</g>
<!-- 140194817996112 -->
<g id="node12" class="node">
<title>140194817996112</title>
<polygon fill="lightgrey" stroke="black" points="246,-560 157,-560 157,-541 246,-541 246,-560"/>
<text text-anchor="middle" x="201.5" y="-548" font-family="monospace" font-size="10.00">BmmBackward0</text>
</g>
<!-- 140194817996112&#45;&gt;140194817996352 -->
<g id="edge10" class="edge">
<title>140194817996112&#45;&gt;140194817996352</title>
<path fill="none" stroke="black" d="M204.8,-540.75C207.48,-533.65 211.35,-523.4 214.69,-514.56"/>
<polygon fill="black" stroke="black" points="218,-515.68 218.26,-505.09 211.45,-513.21 218,-515.68"/>
</g>
<!-- 140194817996016 -->
<g id="node13" class="node">
<title>140194817996016</title>
<polygon fill="lightgrey" stroke="black" points="115,-615 26,-615 26,-596 115,-596 115,-615"/>
<text text-anchor="middle" x="70.5" y="-603" font-family="monospace" font-size="10.00">MulBackward0</text>
</g>
<!-- 140194817996016&#45;&gt;140194817996112 -->
<g id="edge11" class="edge">
<title>140194817996016&#45;&gt;140194817996112</title>
<path fill="none" stroke="black" d="M91.55,-595.98C112.91,-587.34 146.2,-573.87 170.56,-564.02"/>
<polygon fill="black" stroke="black" points="172.11,-567.17 180.07,-560.17 169.49,-560.68 172.11,-567.17"/>
</g>
<!-- 140194817995776 -->
<g id="node14" class="node">
<title>140194817995776</title>
<polygon fill="lightgrey" stroke="black" points="125,-670 0,-670 0,-651 125,-651 125,-670"/>
<text text-anchor="middle" x="62.5" y="-658" font-family="monospace" font-size="10.00">TransposeBackward0</text>
</g>
<!-- 140194817995776&#45;&gt;140194817996016 -->
<g id="edge12" class="edge">
<title>140194817995776&#45;&gt;140194817996016</title>
<path fill="none" stroke="black" d="M63.82,-650.75C64.87,-643.8 66.37,-633.85 67.69,-625.13"/>
<polygon fill="black" stroke="black" points="71.17,-625.5 69.2,-615.09 64.25,-624.45 71.17,-625.5"/>
</g>
<!-- 140194817997792 -->
<g id="node15" class="node">
<title>140194817997792</title>
<polygon fill="lightgrey" stroke="black" points="114,-725 19,-725 19,-706 114,-706 114,-725"/>
<text text-anchor="middle" x="66.5" y="-713" font-family="monospace" font-size="10.00">ViewBackward0</text>
</g>
<!-- 140194817997792&#45;&gt;140194817995776 -->
<g id="edge13" class="edge">
<title>140194817997792&#45;&gt;140194817995776</title>
<path fill="none" stroke="black" d="M65.84,-705.75C65.32,-698.8 64.56,-688.85 63.91,-680.13"/>
<polygon fill="black" stroke="black" points="67.39,-679.8 63.15,-670.09 60.41,-680.32 67.39,-679.8"/>
</g>
<!-- 140194817997888 -->
<g id="node16" class="node">
<title>140194817997888</title>
<polygon fill="lightgrey" stroke="black" points="129,-780 22,-780 22,-761 129,-761 129,-780"/>
<text text-anchor="middle" x="75.5" y="-768" font-family="monospace" font-size="10.00">SelectBackward0</text>
</g>
<!-- 140194817997888&#45;&gt;140194817997792 -->
<g id="edge14" class="edge">
<title>140194817997888&#45;&gt;140194817997792</title>
<path fill="none" stroke="black" d="M74.01,-760.75C72.83,-753.8 71.14,-743.85 69.66,-735.13"/>
<polygon fill="black" stroke="black" points="73.08,-734.36 67.96,-725.09 66.18,-735.53 73.08,-734.36"/>
</g>
<!-- 140194817997984 -->
<g id="node17" class="node">
<title>140194817997984</title>
<polygon fill="lightgrey" stroke="black" points="252,-835 151,-835 151,-816 252,-816 252,-835"/>
<text text-anchor="middle" x="201.5" y="-823" font-family="monospace" font-size="10.00">CloneBackward0</text>
</g>
<!-- 140194817997984&#45;&gt;140194817997888 -->
<g id="edge15" class="edge">
<title>140194817997984&#45;&gt;140194817997888</title>
<path fill="none" stroke="black" d="M181.26,-815.98C160.8,-807.38 128.97,-793.99 105.57,-784.15"/>
<polygon fill="black" stroke="black" points="106.69,-780.82 96.11,-780.17 103.97,-787.27 106.69,-780.82"/>
</g>
<!-- 140194817998224 -->
<g id="node32" class="node">
<title>140194817998224</title>
<polygon fill="lightgrey" stroke="black" points="255,-780 148,-780 148,-761 255,-761 255,-780"/>
<text text-anchor="middle" x="201.5" y="-768" font-family="monospace" font-size="10.00">SelectBackward0</text>
</g>
<!-- 140194817997984&#45;&gt;140194817998224 -->
<g id="edge31" class="edge">
<title>140194817997984&#45;&gt;140194817998224</title>
<path fill="none" stroke="black" d="M201.5,-815.75C201.5,-808.8 201.5,-798.85 201.5,-790.13"/>
<polygon fill="black" stroke="black" points="205,-790.09 201.5,-780.09 198,-790.09 205,-790.09"/>
</g>
<!-- 140194817998128 -->
<g id="node35" class="node">
<title>140194817998128</title>
<polygon fill="lightgrey" stroke="black" points="380,-780 273,-780 273,-761 380,-761 380,-780"/>
<text text-anchor="middle" x="326.5" y="-768" font-family="monospace" font-size="10.00">SelectBackward0</text>
</g>
<!-- 140194817997984&#45;&gt;140194817998128 -->
<g id="edge35" class="edge">
<title>140194817997984&#45;&gt;140194817998128</title>
<path fill="none" stroke="black" d="M221.58,-815.98C241.87,-807.38 273.46,-793.99 296.67,-784.15"/>
<polygon fill="black" stroke="black" points="298.21,-787.3 306.05,-780.17 295.48,-780.85 298.21,-787.3"/>
</g>
<!-- 140194817998080 -->
<g id="node18" class="node">
<title>140194817998080</title>
<polygon fill="lightgrey" stroke="black" points="258,-890 145,-890 145,-871 258,-871 258,-890"/>
<text text-anchor="middle" x="201.5" y="-878" font-family="monospace" font-size="10.00">SqueezeBackward1</text>
</g>
<!-- 140194817998080&#45;&gt;140194817997984 -->
<g id="edge16" class="edge">
<title>140194817998080&#45;&gt;140194817997984</title>
<path fill="none" stroke="black" d="M201.5,-870.75C201.5,-863.8 201.5,-853.85 201.5,-845.13"/>
<polygon fill="black" stroke="black" points="205,-845.09 201.5,-835.09 198,-845.09 205,-845.09"/>
</g>
<!-- 140194817998176 -->
<g id="node19" class="node">
<title>140194817998176</title>
<polygon fill="lightgrey" stroke="black" points="264,-945 139,-945 139,-926 264,-926 264,-945"/>
<text text-anchor="middle" x="201.5" y="-933" font-family="monospace" font-size="10.00">TransposeBackward0</text>
</g>
<!-- 140194817998176&#45;&gt;140194817998080 -->
<g id="edge17" class="edge">
<title>140194817998176&#45;&gt;140194817998080</title>
<path fill="none" stroke="black" d="M201.5,-925.75C201.5,-918.8 201.5,-908.85 201.5,-900.13"/>
<polygon fill="black" stroke="black" points="205,-900.09 201.5,-890.09 198,-900.09 205,-900.09"/>
</g>
<!-- 140194817998272 -->
<g id="node20" class="node">
<title>140194817998272</title>
<polygon fill="lightgrey" stroke="black" points="264,-1000 139,-1000 139,-981 264,-981 264,-1000"/>
<text text-anchor="middle" x="201.5" y="-988" font-family="monospace" font-size="10.00">UnsqueezeBackward0</text>
</g>
<!-- 140194817998272&#45;&gt;140194817998176 -->
<g id="edge18" class="edge">
<title>140194817998272&#45;&gt;140194817998176</title>
<path fill="none" stroke="black" d="M201.5,-980.75C201.5,-973.8 201.5,-963.85 201.5,-955.13"/>
<polygon fill="black" stroke="black" points="205,-955.09 201.5,-945.09 198,-955.09 205,-955.09"/>
</g>
<!-- 140194817998368 -->
<g id="node21" class="node">
<title>140194817998368</title>
<polygon fill="lightgrey" stroke="black" points="249,-1055 154,-1055 154,-1036 249,-1036 249,-1055"/>
<text text-anchor="middle" x="201.5" y="-1043" font-family="monospace" font-size="10.00">ViewBackward0</text>
</g>
<!-- 140194817998368&#45;&gt;140194817998272 -->
<g id="edge19" class="edge">
<title>140194817998368&#45;&gt;140194817998272</title>
<path fill="none" stroke="black" d="M201.5,-1035.75C201.5,-1028.8 201.5,-1018.85 201.5,-1010.13"/>
<polygon fill="black" stroke="black" points="205,-1010.09 201.5,-1000.09 198,-1010.09 205,-1010.09"/>
</g>
<!-- 140194817998464 -->
<g id="node22" class="node">
<title>140194817998464</title>
<polygon fill="lightgrey" stroke="black" points="249,-1110 154,-1110 154,-1091 249,-1091 249,-1110"/>
<text text-anchor="middle" x="201.5" y="-1098" font-family="monospace" font-size="10.00">ViewBackward0</text>
</g>
<!-- 140194817998464&#45;&gt;140194817998368 -->
<g id="edge20" class="edge">
<title>140194817998464&#45;&gt;140194817998368</title>
<path fill="none" stroke="black" d="M201.5,-1090.75C201.5,-1083.8 201.5,-1073.85 201.5,-1065.13"/>
<polygon fill="black" stroke="black" points="205,-1065.09 201.5,-1055.09 198,-1065.09 205,-1065.09"/>
</g>
<!-- 140194817998560 -->
<g id="node23" class="node">
<title>140194817998560</title>
<polygon fill="lightgrey" stroke="black" points="252,-1165 151,-1165 151,-1146 252,-1146 252,-1165"/>
<text text-anchor="middle" x="201.5" y="-1153" font-family="monospace" font-size="10.00">AddmmBackward0</text>
</g>
<!-- 140194817998560&#45;&gt;140194817998464 -->
<g id="edge21" class="edge">
<title>140194817998560&#45;&gt;140194817998464</title>
<path fill="none" stroke="black" d="M201.5,-1145.75C201.5,-1138.8 201.5,-1128.85 201.5,-1120.13"/>
<polygon fill="black" stroke="black" points="205,-1120.09 201.5,-1110.09 198,-1120.09 205,-1120.09"/>
</g>
<!-- 140194817998656 -->
<g id="node24" class="node">
<title>140194817998656</title>
<polygon fill="lightgrey" stroke="black" points="199,-1220 98,-1220 98,-1201 199,-1201 199,-1220"/>
<text text-anchor="middle" x="148.5" y="-1208" font-family="monospace" font-size="10.00">AccumulateGrad</text>
</g>
<!-- 140194817998656&#45;&gt;140194817998560 -->
<g id="edge22" class="edge">
<title>140194817998656&#45;&gt;140194817998560</title>
<path fill="none" stroke="black" d="M157.25,-1200.75C164.97,-1193.03 176.4,-1181.6 185.72,-1172.28"/>
<polygon fill="black" stroke="black" points="188.31,-1174.64 192.91,-1165.09 183.36,-1169.69 188.31,-1174.64"/>
</g>
<!-- 140194818099344 -->
<g id="node25" class="node">
<title>140194818099344</title>
<polygon fill="lightblue" stroke="black" points="190,-1286 101,-1286 101,-1256 190,-1256 190,-1286"/>
<text text-anchor="middle" x="145.5" y="-1274" font-family="monospace" font-size="10.00">in_proj_bias</text>
<text text-anchor="middle" x="145.5" y="-1263" font-family="monospace" font-size="10.00"> (2304)</text>
</g>
<!-- 140194818099344&#45;&gt;140194817998656 -->
<g id="edge23" class="edge">
<title>140194818099344&#45;&gt;140194817998656</title>
<path fill="none" stroke="black" d="M146.23,-1255.84C146.62,-1248.21 147.1,-1238.7 147.53,-1230.45"/>
<polygon fill="black" stroke="black" points="151.03,-1230.43 148.05,-1220.27 144.04,-1230.07 151.03,-1230.43"/>
</g>
<!-- 140194817998608 -->
<g id="node26" class="node">
<title>140194817998608</title>
<polygon fill="lightgrey" stroke="black" points="295,-1220 218,-1220 218,-1201 295,-1201 295,-1220"/>
<text text-anchor="middle" x="256.5" y="-1208" font-family="monospace" font-size="10.00">TBackward0</text>
</g>
<!-- 140194817998608&#45;&gt;140194817998560 -->
<g id="edge24" class="edge">
<title>140194817998608&#45;&gt;140194817998560</title>
<path fill="none" stroke="black" d="M247.42,-1200.75C239.41,-1193.03 227.54,-1181.6 217.88,-1172.28"/>
<polygon fill="black" stroke="black" points="220.04,-1169.51 210.41,-1165.09 215.19,-1174.55 220.04,-1169.51"/>
</g>
<!-- 140194817998704 -->
<g id="node27" class="node">
<title>140194817998704</title>
<polygon fill="lightgrey" stroke="black" points="309,-1280.5 208,-1280.5 208,-1261.5 309,-1261.5 309,-1280.5"/>
<text text-anchor="middle" x="258.5" y="-1268.5" font-family="monospace" font-size="10.00">AccumulateGrad</text>
</g>
<!-- 140194817998704&#45;&gt;140194817998608 -->
<g id="edge25" class="edge">
<title>140194817998704&#45;&gt;140194817998608</title>
<path fill="none" stroke="black" d="M258.2,-1261.37C257.93,-1253.25 257.5,-1240.81 257.15,-1230.39"/>
<polygon fill="black" stroke="black" points="260.64,-1230.04 256.8,-1220.17 253.64,-1230.28 260.64,-1230.04"/>
</g>
<!-- 140194818099248 -->
<g id="node28" class="node">
<title>140194818099248</title>
<polygon fill="lightblue" stroke="black" points="309,-1352 208,-1352 208,-1322 309,-1322 309,-1352"/>
<text text-anchor="middle" x="258.5" y="-1340" font-family="monospace" font-size="10.00">in_proj_weight</text>
<text text-anchor="middle" x="258.5" y="-1329" font-family="monospace" font-size="10.00"> (2304, 768)</text>
</g>
<!-- 140194818099248&#45;&gt;140194817998704 -->
<g id="edge26" class="edge">
<title>140194818099248&#45;&gt;140194817998704</title>
<path fill="none" stroke="black" d="M258.5,-1321.8C258.5,-1312.7 258.5,-1300.79 258.5,-1290.9"/>
<polygon fill="black" stroke="black" points="262,-1290.84 258.5,-1280.84 255,-1290.84 262,-1290.84"/>
</g>
<!-- 140194817996064 -->
<g id="node29" class="node">
<title>140194817996064</title>
<polygon fill="lightgrey" stroke="black" points="266,-615 141,-615 141,-596 266,-596 266,-615"/>
<text text-anchor="middle" x="203.5" y="-603" font-family="monospace" font-size="10.00">TransposeBackward0</text>
</g>
<!-- 140194817996064&#45;&gt;140194817996112 -->
<g id="edge27" class="edge">
<title>140194817996064&#45;&gt;140194817996112</title>
<path fill="none" stroke="black" d="M203.17,-595.75C202.91,-588.8 202.53,-578.85 202.2,-570.13"/>
<polygon fill="black" stroke="black" points="205.7,-569.95 201.82,-560.09 198.7,-570.21 205.7,-569.95"/>
</g>
<!-- 140194817997840 -->
<g id="node30" class="node">
<title>140194817997840</title>
<polygon fill="lightgrey" stroke="black" points="268,-670 143,-670 143,-651 268,-651 268,-670"/>
<text text-anchor="middle" x="205.5" y="-658" font-family="monospace" font-size="10.00">TransposeBackward0</text>
</g>
<!-- 140194817997840&#45;&gt;140194817996064 -->
<g id="edge28" class="edge">
<title>140194817997840&#45;&gt;140194817996064</title>
<path fill="none" stroke="black" d="M205.17,-650.75C204.91,-643.8 204.53,-633.85 204.2,-625.13"/>
<polygon fill="black" stroke="black" points="207.7,-624.95 203.82,-615.09 200.7,-625.21 207.7,-624.95"/>
</g>
<!-- 140194817998032 -->
<g id="node31" class="node">
<title>140194817998032</title>
<polygon fill="lightgrey" stroke="black" points="251,-725 156,-725 156,-706 251,-706 251,-725"/>
<text text-anchor="middle" x="203.5" y="-713" font-family="monospace" font-size="10.00">ViewBackward0</text>
</g>
<!-- 140194817998032&#45;&gt;140194817997840 -->
<g id="edge29" class="edge">
<title>140194817998032&#45;&gt;140194817997840</title>
<path fill="none" stroke="black" d="M203.83,-705.75C204.09,-698.8 204.47,-688.85 204.8,-680.13"/>
<polygon fill="black" stroke="black" points="208.3,-680.21 205.18,-670.09 201.3,-679.95 208.3,-680.21"/>
</g>
<!-- 140194817998224&#45;&gt;140194817998032 -->
<g id="edge30" class="edge">
<title>140194817998224&#45;&gt;140194817998032</title>
<path fill="none" stroke="black" d="M201.83,-760.75C202.09,-753.8 202.47,-743.85 202.8,-735.13"/>
<polygon fill="black" stroke="black" points="206.3,-735.21 203.18,-725.09 199.3,-734.95 206.3,-735.21"/>
</g>
<!-- 140194817996400 -->
<g id="node33" class="node">
<title>140194817996400</title>
<polygon fill="lightgrey" stroke="black" points="389,-560 264,-560 264,-541 389,-541 389,-560"/>
<text text-anchor="middle" x="326.5" y="-548" font-family="monospace" font-size="10.00">TransposeBackward0</text>
</g>
<!-- 140194817996400&#45;&gt;140194817996448 -->
<g id="edge32" class="edge">
<title>140194817996400&#45;&gt;140194817996448</title>
<path fill="none" stroke="black" d="M321.34,-540.66C310.96,-522.85 287.34,-482.37 273.71,-459.01"/>
<polygon fill="black" stroke="black" points="276.61,-457.03 268.55,-450.16 270.57,-460.56 276.61,-457.03"/>
</g>
<!-- 140194817995728 -->
<g id="node34" class="node">
<title>140194817995728</title>
<polygon fill="lightgrey" stroke="black" points="374,-725 279,-725 279,-706 374,-706 374,-725"/>
<text text-anchor="middle" x="326.5" y="-713" font-family="monospace" font-size="10.00">ViewBackward0</text>
</g>
<!-- 140194817995728&#45;&gt;140194817996400 -->
<g id="edge33" class="edge">
<title>140194817995728&#45;&gt;140194817996400</title>
<path fill="none" stroke="black" d="M326.5,-705.74C326.5,-680.31 326.5,-606.08 326.5,-570.69"/>
<polygon fill="black" stroke="black" points="330,-570.31 326.5,-560.31 323,-570.31 330,-570.31"/>
</g>
<!-- 140194817998128&#45;&gt;140194817995728 -->
<g id="edge34" class="edge">
<title>140194817998128&#45;&gt;140194817995728</title>
<path fill="none" stroke="black" d="M326.5,-760.75C326.5,-753.8 326.5,-743.85 326.5,-735.13"/>
<polygon fill="black" stroke="black" points="330,-735.09 326.5,-725.09 323,-735.09 330,-735.09"/>
</g>
<!-- 140194817997072 -->
<g id="node36" class="node">
<title>140194817997072</title>
<polygon fill="lightgrey" stroke="black" points="421,-263 344,-263 344,-244 421,-244 421,-263"/>
<text text-anchor="middle" x="382.5" y="-251" font-family="monospace" font-size="10.00">TBackward0</text>
</g>
<!-- 140194817997072&#45;&gt;140194817997024 -->
<g id="edge36" class="edge">
<title>140194817997072&#45;&gt;140194817997024</title>
<path fill="none" stroke="black" d="M364.02,-243.98C345.52,-235.46 316.82,-222.23 295.52,-212.41"/>
<polygon fill="black" stroke="black" points="296.86,-209.18 286.31,-208.17 293.93,-215.53 296.86,-209.18"/>
</g>
<!-- 140194817996496 -->
<g id="node37" class="node">
<title>140194817996496</title>
<polygon fill="lightgrey" stroke="black" points="444,-323.5 343,-323.5 343,-304.5 444,-304.5 444,-323.5"/>
<text text-anchor="middle" x="393.5" y="-311.5" font-family="monospace" font-size="10.00">AccumulateGrad</text>
</g>
<!-- 140194817996496&#45;&gt;140194817997072 -->
<g id="edge37" class="edge">
<title>140194817996496&#45;&gt;140194817997072</title>
<path fill="none" stroke="black" d="M391.88,-304.37C390.33,-296.16 387.96,-283.54 385.99,-273.05"/>
<polygon fill="black" stroke="black" points="389.42,-272.35 384.13,-263.17 382.54,-273.64 389.42,-272.35"/>
</g>
<!-- 140194818099440 -->
<g id="node38" class="node">
<title>140194818099440</title>
<polygon fill="lightblue" stroke="black" points="451,-395 344,-395 344,-365 451,-365 451,-395"/>
<text text-anchor="middle" x="397.5" y="-383" font-family="monospace" font-size="10.00">out_proj.weight</text>
<text text-anchor="middle" x="397.5" y="-372" font-family="monospace" font-size="10.00"> (768, 768)</text>
</g>
<!-- 140194818099440&#45;&gt;140194817996496 -->
<g id="edge38" class="edge">
<title>140194818099440&#45;&gt;140194817996496</title>
<path fill="none" stroke="black" d="M396.61,-364.8C396.04,-355.7 395.3,-343.79 394.68,-333.9"/>
<polygon fill="black" stroke="black" points="398.17,-333.61 394.05,-323.84 391.18,-334.04 398.17,-333.61"/>
</g>
<!-- 140194818100304&#45;&gt;140194818100112 -->
<g id="edge41" class="edge">
<title>140194818100304&#45;&gt;140194818100112</title>
<path fill="none" stroke="black" stroke-dasharray="1,5" d="M314.66,-66.75C306.86,-58.44 296.96,-47.9 288.25,-38.61"/>
<polygon fill="black" stroke="black" points="290.68,-36.09 281.29,-31.19 285.58,-40.88 290.68,-36.09"/>
</g>
</g>
</svg>
